:SAMPLES-PER-SECOND 30
:FULLY-SPECIFIED
:DEGREES
395
root  -16.3476 37.0024 -1.74893 105.917 -70.2007 -111.679
RightUpLeg  -27.5746 -30.7565 2.85339
RightLeg  39.6575 -1.27524 -1.34878
RightFoot  35.8051 -7.92347 18.6165
RightToes  6.35927e-011 1.30204e-014 -6.03759e-014
Spine  18.1583 -1.18704 -19.0927
Spine1  -1.225 -6.85454 21.9645
HEad  -8.88804 23.6149 13.2203
LeftShoulder1  1.14342 -2.34756 -12.4659
LeftArm  -2.90143 17.312 -45.6394
LeftForeArm  172.997 -59.0731 -163.716
LeftHand  -0.0238593 -3.48714 0.563588
RightShoulder  1.35711 1.92158 18.5592
RightArm  11.0945 -51.5636 22.7719
RightForeArm  153.054 67.7278 154.132
RightHand  0.0648763 1.93872 0.862829
LeftUpLeg  -1.77064 -2.60703 44.3108
LeftLeg  38.5582 21.865 17.9855
LeftFoot  6.07036 6.40135 -40.3624
LeftToes  7.40077e-010 7.2695e-011 -6.03601e-011
396
root  -16.662 36.8959 -2.58232 107.176 -69.5372 -112.404
RightUpLeg  -21.9918 -21.5297 2.76392
RightLeg  34.74 -3.56392 -2.90213
RightFoot  23.7355 -6.16091 20.0035
RightToes  6.35927e-011 1.30204e-014 -6.03759e-014
Spine  17.2202 -0.701278 -18.5946
Spine1  -0.0208159 -6.52791 21.6304
HEad  -10.3312 23.4048 12.2325
LeftShoulder1  1.21156 -2.35226 -13.7337
LeftArm  -3.11527 18.581 -45.8376
LeftForeArm  168.779 -64.3985 -159.233
LeftHand  0.0702655 -4.05909 -0.581746
RightShoulder  1.22431 1.44944 18.2428
RightArm  7.14339 -49.8999 28.9247
RightForeArm  148.04 71.2483 148.258
RightHand  0.106574 2.0009 1.50341
LeftUpLeg  -2.07121 2.12097 43.8915
LeftLeg  40.4229 25.6018 21.8633
LeftFoot  3.02558 4.7734 -36.7744
LeftToes  7.40077e-010 7.2695e-011 -6.03601e-011
397
root  -16.9489 36.2699 -3.2511 102.442 -70.65 -108.263
RightUpLeg  -17.4215 -14.3926 1.70845
RightLeg  34.2058 -6.29268 -4.85387
RightFoot  7.90578 -3.92726 23.1091
RightToes  6.35927e-011 1.30204e-014 -6.03759e-014
Spine  18.0171 -0.380446 -17.3031
Spine1  0.98907 -6.42802 21.5847
HEad  -11.8205 22.3396 9.85855
LeftShoulder1  1.29821 -2.3767 -15.2488
LeftArm  -3.40928 19.2695 -48.2889
LeftForeArm  156.519 -73.6214 -144.412
LeftHand  0.0658573 -5.0386 -0.455292
RightShoulder  1.09669 0.961637 18.0899
RightArm  3.25842 -46.5048 35.9985
RightForeArm  137.283 75.7952 135.685
RightHand  0.0984935 2.07976 1.35596
LeftUpLeg  -4.18944 4.67592 43.9733
LeftLeg  44.2309 23.6876 23.003
LeftFoot  0.0802315 3.61561 -35.2187
LeftToes  7.40077e-010 7.2695e-011 -6.03601e-011
398
root  -17.1309 35.3309 -3.4652 92.2358 -73.3914 -98.5402
RightUpLeg  -16.8392 -14.445 -0.994777
RightLeg  38.4223 -5.53642 -4.92749
RightFoot  -3.03245 -1.82099 24.2878
RightToes  6.35927e-011 1.30204e-014 -6.03759e-014
Spine  19.7946 -0.731477 -14.1177
Spine1  1.26732 -6.28795 20.322
HEad  -14.0589 19.7943 6.34857
LeftShoulder1  1.49253 -2.69754 -17.4012
LeftArm  -3.92844 19.209 -50.6565
LeftForeArm  122.261 -80.5437 -104.114
LeftHand  -0.161662 -5.66439 2.02357
RightShoulder  1.0453 0.66759 18.6388
RightArm  0.348583 -41.8722 41.4546
RightForeArm  121.568 78.7307 118.599
RightHand  -0.0243156 2.19107 -0.532755
LeftUpLeg  -9.58174 4.35053 43.5518
LeftLeg  50.417 16.0255 19.9457
LeftFoot  -0.962909 3.61676 -38.3091
LeftToes  7.40077e-010 7.2695e-011 -6.03601e-011
399
root  -17.2029 34.4945 -3.08522 82.6348 -77.14 -89.267
RightUpLeg  -18.6524 -17.8971 -6.73925
RightLeg  44.292 -3.50661 -3.98286
RightFoot  -6.55969 -1.09903 24.8344
RightToes  6.35927e-011 1.30204e-014 -6.03759e-014
Spine  20.9302 -1.16964 -9.23217
Spine1  1.99679 -5.26502 16.5269
HEad  -17.3772 15.8116 2.03824
LeftShoulder1  1.76552 -3.21008 -19.8319
LeftArm  -5.10609 20.335 -51.4903
LeftForeArm  97.6808 -80.7181 -74.1917
LeftHand  -0.446714 -5.1236 5.25686
RightShoulder  1.00406 0.421608 19.2075
RightArm  -1.37856 -36.0262 44.7878
RightForeArm  115.411 79.3656 111.634
RightHand  -0.224003 2.41337 -3.52865
LeftUpLeg  -15.4599 6.39164 41.9959
LeftLeg  57.8571 7.85533 13.7711
LeftFoot  1.3797 4.94211 -42.3622
LeftToes  7.40077e-010 7.2695e-011 -6.03601e-011
400
root  -17.2458 34.1116 -2.34719 76.3107 -82.1153 -83.4922
RightUpLeg  -19.6061 -18.9281 -14.5059
RightLeg  47.257 -2.5299 -3.27606
RightFoot  -5.98685 -1.30122 26.4753
RightToes  6.35927e-011 1.30204e-014 -6.03759e-014
Spine  21.3627 -0.800919 -4.94474
Spine1  2.89302 -3.10799 10.9446
HEad  -19.9779 10.9466 -2.33403
LeftShoulder1  1.89084 -3.34805 -21.2246
LeftArm  -6.48047 23.7551 -50.9611
LeftForeArm  119.557 -80.8505 -95.9315
LeftHand  -0.534062 -4.29964 6.66926
RightShoulder  0.910622 0.120419 18.7212
RightArm  -2.41235 -30.3878 45.9953
RightForeArm  127.104 78.249 122.819
RightHand  -0.368863 2.46223 -5.67224
LeftUpLeg  -19.1394 13.2487 38.9373
LeftLeg  64.3914 3.35595 8.36467
LeftFoot  8.96614 7.65797 -41.5979
LeftToes  7.40077e-010 7.2695e-011 -6.03601e-011
401
root  -17.3041 34.2577 -1.37302 86.757 -87.7425 -94.4254
RightUpLeg  -18.4422 -18.214 -22.3765
RightLeg  45.5768 -1.73641 -2.24979
RightFoot  -4.54315 -1.71582 27.8616
RightToes  6.35927e-011 1.30204e-014 -6.03759e-014
Spine  21.7844 -0.015868 -1.93613
Spine1  2.86669 -0.79474 5.56171
HEad  -20.3083 5.80271 -6.21632
LeftShoulder1  1.7667 -2.97015 -20.8777
LeftArm  -7.23072 27.7653 -49.4241
LeftForeArm  150.589 -77.973 -130.813
LeftHand  -0.4602 -3.75563 6.09703
RightShoulder  0.766264 -0.271723 17.1872
RightArm  -4.12592 -26.9481 45.0755
RightForeArm  143.102 74.7415 139.927
RightHand  -0.371568 2.01544 -5.99765
LeftUpLeg  -21.3594 21.9069 34.6365
LeftLeg  68.0929 0.707515 2.74405
LeftFoot  18.3562 9.60665 -35.6468
LeftToes  7.40077e-010 7.2695e-011 -6.03601e-011
402
root  -17.3772 34.8699 -0.0813964 -44.6577 -86.7003 37.0453
RightUpLeg  -15.4186 -18.8533 -29.6881
RightLeg  39.8804 -1.75104 -1.84295
RightFoot  0.05192 -2.89366 28.3865
RightToes  6.35927e-011 1.30204e-014 -6.03759e-014
Spine  21.7074 0.250606 0.843018
Spine1  2.33304 0.657432 1.02154
HEad  -18.9645 0.977757 -9.67661
LeftShoulder1  1.60806 -2.6602 -19.6053
LeftArm  -7.86313 30.3157 -46.7165
LeftForeArm  162.375 -73.7482 -145.984
LeftHand  -0.367813 -2.91799 5.37835
RightShoulder  0.602646 -0.769498 15.3837
RightArm  -7.03142 -25.7148 42.0723
RightForeArm  150.612 69.4533 151.559
RightHand  -0.317142 1.19856 -5.72726
LeftUpLeg  -23.5629 28.6793 28.9654
LeftLeg  68.9245 -2.06129 -5.00763
LeftFoot  23.2069 9.5482 -30.4776
LeftToes  7.40077e-010 7.2695e-011 -6.03601e-011
403
root  -17.4512 35.82 1.50464 -65.9016 -82.5447 58.8965
RightUpLeg  -11.6057 -20.4745 -36.3967
RightLeg  31.0816 -5.42365 -3.62803
RightFoot  11.2802 -5.7596 28.6338
RightToes  6.35927e-011 1.30204e-014 -6.03759e-014
Spine  20.7363 0.0439115 3.76819
Spine1  1.90112 1.43793 -3.07061
HEad  -17.0634 -2.68289 -12.9873
LeftShoulder1  1.56411 -2.71517 -18.5923
LeftArm  -9.1574 31.6131 -42.6506
LeftForeArm  166.573 -70.5648 -152.155
LeftHand  -0.323142 -1.84921 5.36577
RightShoulder  0.463459 -1.25561 13.852
RightArm  -10.3317 -25.2576 37.4297
RightForeArm  151.17 64.0694 157.838
RightHand  -0.324682 0.620139 -6.3565
LeftUpLeg  -24.8143 33.6608 22.4461
LeftLeg  66.8498 -3.66285 -8.70333
LeftFoot  22.5064 9.03334 -29.5978
LeftToes  7.40077e-010 7.2695e-011 -6.03601e-011
